<?xml version="1.0" encoding="UTF-8"?>
<svg width="1200pt" height="1200pt" version="1.1" viewBox="0 0 1200 1200" xmlns="http://www.w3.org/2000/svg">
 <path d="m491.06 856.63v24.996c0 7.4023 6.0234 13.43 13.43 13.43h29.426v-51.852h-29.426c-7.4023-0.003906-13.43 6.0195-13.43 13.426z"/>
 <path d="m277.01 780.12v31.223c0 31.922 26.039 57.898 58.043 57.898h2.8672l0.003906-147.17h-2.8672c-32.008 0-58.047 26.043-58.047 58.047z"/>
 <path d="m611.53 843.2h28.488v51.852h-28.488z"/>
 <path d="m694.92 843.2h-29.438v51.852h29.438c7.4023 0 13.43-6.0234 13.43-13.43v-24.996c-0.003906-7.4023-6.0273-13.426-13.43-13.426z"/>
 <path d="m559.38 843.2h26.688v51.852h-26.688z"/>
 <path d="m529.82 709.34c0-22.5-18.301-40.801-40.801-40.801-22.488 0-40.789 18.301-40.789 40.801s18.301 40.801 40.789 40.801c22.5 0 40.801-18.312 40.801-40.801zm-72.578 0c0-17.52 14.258-31.766 31.766-31.766 17.508 0 31.766 14.258 31.766 31.766s-14.258 31.777-31.766 31.777c-17.508 0-31.766-14.258-31.766-31.777z"/>
 <path d="m624.14 324.88c0 13.992-11.344 25.332-25.332 25.332-13.992 0-25.332-11.34-25.332-25.332 0-13.988 11.34-25.332 25.332-25.332 13.988 0 25.332 11.344 25.332 25.332"/>
 <path d="m599.75 465c-31.992 0-59.629 23.074-65.664 54.238h131.32c-6.0352-31.148-33.66-54.238-65.652-54.238z"/>
 <path d="m563.89 709.34c0-41.281-33.59-74.867-74.867-74.867-41.27 0-74.855 33.59-74.855 74.867 0 41.281 33.59 74.867 74.855 74.867 41.281 0 74.867-33.586 74.867-74.867zm-141.14 0c0-36.539 29.734-66.266 66.266-66.266 36.527 0 66.266 29.723 66.266 66.266 0 36.539-29.734 66.266-66.266 66.266-36.527 0-66.266-29.727-66.266-66.266z"/>
 <path d="m862.56 722.07h-2.8672v147.16h2.8672c31.922 0 57.898-25.98 57.898-57.898l0.003907-31.211c0-32.004-25.98-58.047-57.902-58.047z"/>
 <path d="m730.15 544.7h-262.69c-57.383 0-104.07 46.691-104.07 104.06v262.69c0 57.383 46.691 104.06 104.07 104.06h262.69c57.383 0 104.07-46.691 104.07-104.06v-262.69c0-57.375-46.691-104.07-104.07-104.07zm-341.46 164.64c0-55.32 45.012-100.33 100.33-100.33 55.32 0 100.33 45 100.33 100.33s-45.012 100.33-100.33 100.33c-55.32 0-100.33-45.012-100.33-100.33zm345.12 172.29c0 21.445-17.449 38.891-38.891 38.891h-190.43c-21.445 0-38.891-17.449-38.891-38.891v-24.996c0-21.445 17.449-38.891 38.891-38.891l190.43-0.003907c21.445 0 38.891 17.449 38.891 38.891zm-25.223-71.953c-55.32 0-100.33-45.012-100.33-100.33s45.012-100.33 100.33-100.33c55.32 0 100.33 45 100.33 100.33s-45.016 100.33-100.33 100.33z"/>
 <path d="m708.59 634.48c-41.281 0-74.867 33.59-74.867 74.867 0 41.281 33.59 74.867 74.867 74.867 41.281 0 74.867-33.59 74.867-74.867 0-41.281-33.59-74.867-74.867-74.867zm0 141.13c-36.539 0-66.266-29.734-66.266-66.266 0-36.527 29.734-66.266 66.266-66.266 36.527 0 66.266 29.723 66.266 66.266-0.003907 36.539-29.727 66.266-66.266 66.266z"/>
 <path d="m708.59 668.54c-22.5 0-40.801 18.301-40.801 40.801s18.301 40.801 40.801 40.801 40.801-18.301 40.801-40.801c-0.003906-22.5-18.301-40.801-40.801-40.801zm0 72.566c-17.52 0-31.766-14.258-31.766-31.766s14.258-31.766 31.766-31.766c17.508 0 31.766 14.258 31.766 31.766-0.003907 17.508-14.246 31.766-31.766 31.766z"/>
 <path d="m600 63c-296.1 0-537 240.9-537 537s240.9 537 537 537 537-240.9 537-537-240.9-537-537-537zm-1.1992 96c91.465 0 165.88 74.41 165.88 165.89 0 7.0195-5.7227 12.73-12.742 12.73-7.0195 0-12.73-5.7109-12.73-12.73 0-77.426-62.988-140.43-140.41-140.43-77.426 0-140.41 63-140.41 140.43 0 7.0195-5.7109 12.73-12.73 12.73-7.0195 0-12.742-5.7109-12.742-12.73 0.015625-91.477 74.426-165.89 165.89-165.89zm108.35 165.89c0 7.0195-5.7109 12.73-12.73 12.73s-12.742-5.7109-12.742-12.73c0-45.707-37.176-82.883-82.871-82.883-45.695 0-82.871 37.176-82.871 82.883 0 7.0195-5.7109 12.73-12.73 12.73s-12.742-5.7109-12.742-12.73c0-59.746 48.602-108.35 108.34-108.35 59.727 0 108.35 48.602 108.35 108.35zm238.78 486.45c0 45.973-37.391 83.363-83.363 83.363h-2.8672v16.766c0 71.426-58.117 129.53-129.54 129.53h-262.7c-71.426 0-129.54-58.105-129.54-129.53v-16.766h-2.8672c-46.043 0-83.508-37.402-83.508-83.363l-0.003906-31.211c0-46.043 37.465-83.508 83.508-83.508h2.8672v-47.832c0-71.426 58.117-129.53 129.54-129.53h40.777c5.6875-40.621 38.219-73.152 78.758-78.793v-66.238c-22.754-5.4258-39-25.777-39-49.332 0-28.008 22.789-50.785 50.797-50.785 28.008 0 50.797 22.777 50.797 50.785 0 22.957-15.156 42.707-37.129 48.828v66.742c40.609 5.6406 73.152 38.172 78.781 78.793h38.879c71.426 0 129.54 58.105 129.54 129.53v47.832h2.8672c45.973 0 83.363 37.465 83.363 83.508v31.211z"/>
</svg>
