<?xml version="1.0" encoding="UTF-8"?>
<svg width="1200pt" height="1200pt" version="1.1" viewBox="0 0 1200 1200" xmlns="http://www.w3.org/2000/svg">
 <path d="m515.66 995.69c0 11.223-9.0977 20.316-20.316 20.316s-20.316-9.0938-20.316-20.316c0-11.219 9.0977-20.316 20.316-20.316s20.316 9.0977 20.316 20.316"/>
 <path d="m620.32 995.69c0 11.223-9.0977 20.316-20.316 20.316s-20.316-9.0938-20.316-20.316c0-11.219 9.0977-20.316 20.316-20.316s20.316 9.0977 20.316 20.316"/>
 <path d="m724.97 995.69c0 11.223-9.0977 20.316-20.316 20.316s-20.316-9.0938-20.316-20.316c0-11.219 9.0977-20.316 20.316-20.316s20.316 9.0977 20.316 20.316"/>
 <path d="m586.63 60h26.734v51.73h-26.734z"/>
 <path d="m691.51 189.86h51.73v26.746h-51.73z"/>
 <path d="m456.77 189.86h51.73v26.746h-51.73z"/>
 <path d="m691.81 92.496 18.918 18.91-36.566 36.578-18.918-18.91z"/>
 <path d="m508.19 92.477 36.578 36.566-18.91 18.918-36.578-36.566z"/>
 <path d="m496.41 499.74c32.629 0 59.172-26.543 59.172-59.16 0-32.629-26.543-59.172-59.172-59.172-32.629 0-59.16 26.543-59.16 59.172 0.003906 32.629 26.535 59.16 59.16 59.16zm0-91.582c17.879 0 32.426 14.543 32.426 32.426 0 17.879-14.543 32.426-32.426 32.426-17.879 0-32.426-14.543-32.426-32.426 0.015625-17.871 14.547-32.426 32.426-32.426z"/>
 <path d="m703.59 499.74c32.629 0 59.16-26.543 59.16-59.16 0-32.629-26.543-59.172-59.16-59.172-32.629 0-59.172 26.543-59.172 59.172-0.003906 32.629 26.543 59.16 59.172 59.16zm0-91.582c17.879 0 32.426 14.543 32.426 32.426 0 17.879-14.543 32.426-32.426 32.426-17.879 0-32.426-14.543-32.426-32.426 0-17.871 14.543-32.426 32.426-32.426z"/>
 <path d="m344.51 557.76h41.797l0.43359 2.5078c8.4102 48.695 50.352 84.035 99.719 84.035h227.09c49.367 0 91.309-35.34 99.719-84.035l0.43359-2.5078h41.797c34.355 0 62.293-27.949 62.293-62.293v-55.332c0-34.355-27.949-62.293-62.293-62.293h-45.156l-0.68359-2.0625c-13.812-41.543-52.43-69.457-96.098-69.457h-99.613v-51.684l2.1719-0.63672c24.602-7.1992 41.797-29.941 41.797-55.32 0-31.934-25.969-57.898-57.898-57.898-31.934 0-57.898 25.969-57.898 57.898 0 25.367 17.184 48.121 41.797 55.32l2.1719 0.63672v51.684h-99.613c-43.668 0-82.285 27.91-96.098 69.457l-0.68359 2.0625h-45.156c-34.355 0-62.293 27.949-62.293 62.293v55.332c-0.039063 34.344 27.91 62.293 62.266 62.293zm481.61-153.18h29.375c19.609 0 35.555 15.949 35.555 35.555v55.332c0 19.609-15.949 35.555-35.555 35.555h-29.375zm-273.29 192.96h-18.84c-12.926 0-23.449-10.512-23.449-23.449 0-12.926 10.512-23.438 23.449-23.438h18.84zm67.609 0h-40.871v-46.883h40.871zm45.574 0h-18.84v-46.883h18.84c12.926 0 23.449 10.512 23.449 23.438 0 12.934-10.512 23.445-23.449 23.445zm-97.164-398.84c0-17.184 13.98-31.152 31.152-31.152s31.152 13.98 31.152 31.152c0 17.172-13.98 31.141-31.152 31.141s-31.152-13.969-31.152-31.141zm-156.96 208.95c0-41.125 33.445-74.566 74.566-74.566h227.09c41.125 0 74.566 33.445 74.566 74.566v135.35c0 41.125-33.445 74.566-74.566 74.566h-21.59l6.2773-5.3164c11.426-9.6602 17.965-23.566 17.965-38.137 0-27.672-22.512-50.172-50.184-50.172l-132.02 0.003906c-27.672 0-50.184 22.512-50.184 50.172 0 14.566 6.5508 28.477 17.965 38.137l6.2773 5.3164h-21.59c-41.125 0-74.566-33.445-74.566-74.566zm-102.93 32.496c0-19.609 15.949-35.555 35.555-35.555h29.375v126.43h-29.375c-19.609 0-35.555-15.949-35.555-35.555z"/>
 <path d="m918.23 942.57-2.1602-0.64844v-183.78l1.5-0.875c17.82-10.344 28.895-29.34 28.895-49.586 0-31.738-25.812-57.551-57.539-57.551-28.367 0-52.176 20.438-56.629 48.59l-1.3672 8.6289-4.2461-7.6328c-9-16.164-25.871-26.207-44.027-26.207l-365.3-0.003906c-18.168 0-35.039 10.043-44.027 26.207l-4.2461 7.6328-1.3672-8.6289c-4.4531-28.164-28.262-48.59-56.629-48.59-31.727 0-57.539 25.812-57.539 57.551 0 20.242 11.074 39.254 28.895 49.586l1.5 0.875v190l-2.1602 0.64844c-27.793 8.2422-47.184 34.234-47.184 63.191 0 21.266 10.176 40.98 27.371 53.352l18.156-27.805c-7.8125-6.1797-12.395-15.527-12.395-25.559 0-18.086 14.688-32.797 32.746-32.797 18.086 0 32.797 14.711 32.797 32.797 0 10.031-4.5859 19.367-12.383 25.559l18.145 27.805c17.207-12.371 27.383-32.102 27.383-53.352 0-28.934-19.402-54.926-47.184-63.18l-2.1602-0.64844-0.003906-183.41 2.5664-0.38281c17.605-2.6523 32.723-13.164 41.473-28.836l5.6523-10.117v181.36c0.003906 128.61 104.64 233.23 233.25 233.23s233.24-104.63 233.24-233.24v-181.35l5.6523 10.117c8.7617 15.672 23.879 26.184 41.473 28.836l2.5664 0.38281v177.18l-2.1602 0.64844c-27.781 8.2422-47.184 34.234-47.184 63.191 0 21.266 10.176 40.98 27.383 53.352l18.145-27.805c-7.8125-6.1797-12.383-15.516-12.383-25.559 0-18.086 14.688-32.797 32.746-32.797 18.086 0 32.797 14.711 32.797 32.797 0 10.031-4.5859 19.379-12.395 25.559l18.156 27.805c17.195-12.371 27.371-32.102 27.371-53.352 0-28.941-19.391-54.934-47.184-63.191zm-597.37-203.8c-3.2891 0.875-6.1094 1.2852-8.8906 1.2852-9.707 0-19.066-4.2227-25.691-11.566-5.7852-6.4336-8.9648-14.629-8.9648-23.074 0-19.105 15.539-34.656 34.656-34.656 19.117 0 34.656 15.539 34.656 34.656 0 15.582-10.598 29.309-25.766 33.355zm417.59 320.77c-38.195 34.645-87.359 53.723-138.45 53.723s-100.25-19.078-138.45-53.723l-5.7969-5.2422h288.47zm68.051-152.78c0 42.48-12.984 83.398-37.547 118.36l-0.89844 1.2852-336.1-0.003907-0.89844-1.2852c-24.562-34.957-37.547-75.887-37.547-118.36l-0.003906-182.64c0-13.152 10.691-23.844 23.844-23.844h365.3c13.152 0 23.844 10.691 23.844 23.844zm83.723-166.71c-3.6602 0-7.3438-0.66016-11.293-2.0273-13.969-4.8477-23.363-17.953-23.363-32.629 0-19.105 15.539-34.656 34.656-34.656 19.105 0 34.656 15.539 34.656 34.656 0 5.5664-1.4141 11.051-4.2109 16.262-6.0859 11.352-17.75 18.395-30.445 18.395z"/>
 <path d="m644.79 828.64h-41.93l42.551-47.832c7.8359-8.8086 7.043-22.355-1.7539-30.191-4.0664-3.6133-9.1445-5.3867-14.207-5.3867-5.8906 0-11.773 2.4102-15.984 7.1523l-74.195 83.426c-5.5938 6.2891-6.9844 15.301-3.5391 22.969 3.4453 7.6797 11.102 12.637 19.512 12.637h36.613l-48.758 47.051c-4.1172 3.9609-6.4336 9.2891-6.5391 15-0.10938 5.7109 2.0156 11.125 5.9883 15.227 7.9336 8.207 22.008 8.4727 30.227 0.52734l86.844-83.82c4.7266-4.5586 7.0078-10.871 6.4688-17.16-0.17969-2.1016-0.67188-4.1875-1.5-6.2266-3.2617-8.1172-11.051-13.371-19.797-13.371z"/>
</svg>
