<?xml version="1.0" encoding="UTF-8"?>
<svg width="1200pt" height="1200pt" version="1.1" viewBox="0 0 1200 1200" xmlns="http://www.w3.org/2000/svg">
 <path d="m1085.8 176.29c-12.926 0-24.625 5.2578-33.086 13.715-8.4609 8.4609-13.715 20.16-13.715 33.086s5.2578 24.625 13.715 33.086c8.4609 8.4609 20.16 13.715 33.086 13.715 12.926 0 24.625-5.2578 33.086-13.715 8.4609-8.4609 13.715-20.16 13.715-33.086s-5.2578-24.625-13.715-33.086c-8.4609-8.4609-20.16-13.715-33.086-13.715zm-338.66 269.57c-18.324 0-34.883 7.418-46.871 19.402-11.988 11.988-19.402 28.586-19.402 46.871 0 18.324 7.418 34.883 19.402 46.871 11.988 11.988 28.547 19.402 46.871 19.402 18.289 0 34.883-7.418 46.871-19.402 11.988-11.988 19.402-28.586 19.402-46.871 0-18.289-7.418-34.883-19.402-46.871-11.988-11.988-28.586-19.402-46.871-19.402zm-85.824-19.547c21.961-21.961 52.309-35.531 85.824-35.531s63.863 13.57 85.824 35.531c21.961 21.961 35.566 52.309 35.566 85.824s-13.609 63.863-35.566 85.824c-21.961 21.961-52.309 35.531-85.824 35.531s-63.863-13.609-85.824-35.531c-21.961-21.961-35.531-52.309-35.531-85.824s13.609-63.863 35.531-85.824zm-306.98-183.96h491.33c34.344 0 65.559 14.039 88.164 36.613 22.609 22.609 36.648 53.82 36.648 88.164v101.84h26.566l38.629-157.18c-8.0625-4.5352-15.406-10.188-21.926-16.668-18.434-18.434-29.844-43.922-29.844-72.035 0-28.117 11.414-53.605 29.844-72.035 18.434-18.434 43.922-29.844 72.035-29.844 28.117 0 53.605 11.414 72.035 29.844 18.434 18.434 29.844 43.883 29.844 72.035 0 28.117-11.414 53.605-29.844 72.035-17.711 17.711-41.941 28.945-68.762 29.773l-36.973 150.38c12.059 4.7148 22.934 11.879 31.934 20.879 0.57422 0.57422 1.1172 1.1875 1.6562 1.8008 15.805 16.633 25.559 39.059 25.559 63.684v139.9c0 25.523-10.402 48.672-27.215 65.449-16.777 16.777-39.926 27.18-65.449 27.18h-48.098v159.88c0 34.344-14.039 65.52-36.648 88.129-22.609 22.609-53.82 36.648-88.164 36.648h-491.33c-34.344 0-65.559-14.039-88.164-36.648-22.609-22.609-36.613-53.785-36.613-88.129v-159.88h-48.133c-25.488 0-48.672-10.402-65.449-27.18-16.777-16.777-27.215-39.926-27.215-65.449v-139.9c0-25.418 10.402-48.566 27.215-65.34l0.035156-0.070313-0.035156-0.070313c9-9 19.871-16.164 31.934-20.879l-36.973-150.38c-26.82-0.82812-51.047-12.059-68.762-29.773-18.434-18.434-29.844-43.922-29.844-72.035 0-28.117 11.414-53.605 29.844-72.035 18.434-18.434 43.883-29.844 72.035-29.844 28.117 0 53.605 11.414 72.035 29.844 18.434 18.434 29.844 43.883 29.844 72.035 0 28.117-11.414 53.605-29.844 72.035-6.4805 6.4805-13.859 12.133-21.926 16.668l38.629 157.18h26.605v-101.84c0-34.344 14.039-65.559 36.613-88.164 22.609-22.609 53.82-36.613 88.164-36.613zm-207.04-52.344c-8.4609-8.4609-20.16-13.715-33.086-13.715-12.926 0-24.625 5.2578-33.086 13.715-8.4609 8.4609-13.715 20.16-13.715 33.086 0 12.926 5.2578 24.625 13.715 33.086 8.4609 8.4609 20.16 13.715 33.086 13.715 12.926 0 24.625-5.2578 33.086-13.715 8.4609-8.4609 13.715-20.16 13.715-33.086 0-12.926-5.2578-24.625-13.715-33.086zm598.58 633.43h97.238c15.191 0 27.539 12.348 27.539 27.539v97.238c0 15.191-12.348 27.539-27.539 27.539h-486.23c-15.191 0-27.539-12.348-27.539-27.539v-97.238c0-15.227 12.348-27.539 27.539-27.539zm69.695 55.082h-42.156v42.156h42.156zm-97.238 0h-42.156v42.156h42.156zm-97.238 0h-42.156v42.156h42.156zm-97.238 0h-42.156v42.156h42.156zm-97.238 0h-42.156v42.156h42.156zm173.41-161.61h19.727l-19.727-25.129-19.727 25.129zm76.32 55.082h-152.68v-0.035156c-5.9766 0-11.953-1.9062-16.992-5.8672-11.918-9.3945-14.004-26.676-4.6094-38.629l75.996-96.805c1.4023-1.8711 3.0586-3.5625 4.9688-5.0742 11.918-9.3945 29.23-7.3086 38.629 4.6445l75.457 96.121c4.2109 4.8594 6.8047 11.16 6.8047 18.109 0 15.227-12.348 27.539-27.539 27.539zm-223.49-381.28c33.516 0 63.863 13.57 85.824 35.531 21.961 21.961 35.531 52.309 35.531 85.824 0 33.516-13.57 63.863-35.531 85.824-21.961 21.961-52.309 35.531-85.824 35.531s-63.863-13.609-85.824-35.531c-21.961-21.961-35.566-52.309-35.566-85.824 0-33.516 13.609-63.863 35.566-85.824 21.961-21.961 52.309-35.531 85.824-35.531zm46.871 74.484c-11.988-11.988-28.547-19.402-46.871-19.402-18.289 0-34.883 7.418-46.871 19.402-11.988 11.988-19.402 28.586-19.402 46.871 0 18.324 7.418 34.883 19.402 46.871 11.988 11.988 28.586 19.402 46.871 19.402 18.324 0 34.883-7.418 46.871-19.402 11.988-11.988 19.402-28.586 19.402-46.871 0-18.289-7.418-34.883-19.402-46.871zm470.74 58.789v215h48.098c10.297 0 19.656-4.2461 26.496-11.051 6.8047-6.8047 11.051-16.199 11.051-26.496v-139.9c0-9.793-3.7812-18.758-9.9375-25.453l-1.1172-1.043c-6.8047-6.8047-16.199-11.051-26.496-11.051h-48.098zm-740.92 215v-215h-48.133c-10.297 0-19.656 4.2461-26.496 11.051l-0.070312-0.035156c-6.7695 6.8047-11.016 16.199-11.016 26.531v139.9c0 10.297 4.2461 19.691 11.051 26.496 6.8047 6.8047 16.199 11.051 26.496 11.051h48.133zm685.81 27.793v-399.67c0-19.117-7.8477-36.539-20.484-49.211s-30.059-20.484-49.211-20.484h-491.33c-19.117 0-36.539 7.8477-49.211 20.484-12.637 12.637-20.484 30.059-20.484 49.211v586.88c0 19.117 7.8477 36.539 20.484 49.211 12.637 12.637 30.059 20.484 49.211 20.484h491.33c19.117 0 36.578-7.8477 49.211-20.484 12.637-12.637 20.484-30.059 20.484-49.211z"/>
</svg>
